<?xml version="1.0" standalone="no"?><!DOCTYPE svg PUBLIC "-//W3C//DTD SVG 1.1//EN" "http://www.w3.org/Graphics/SVG/1.1/DTD/svg11.dtd"><svg t="1484471876456" class="icon" style="" viewBox="0 0 1024 1024" version="1.1" xmlns="http://www.w3.org/2000/svg" p-id="2087" xmlns:xlink="http://www.w3.org/1999/xlink" width="200" height="200"><defs><style type="text/css"></style></defs><path d="M577.826 904.739c4.681-17.085-5.411-34.664-22.459-39.278l-71.051-19.338c62.877-33.95 116.578-84.04 155.144-145.509 122.548-195.427 64.759-455.771-128.854-580.162-32.514-18.34-70.012 25.157-34.602 53.81 164.225 105.484 213.27 326.291 109.211 492.362-37.707 60.118-92.593 107.313-156.626 135.479l34.319-112.97c5.083-16.861-4.394-34.773-21.323-39.914-16.928-5.14-34.77 4.427-39.912 21.323l-50.507 166.255c-1.173 3.91-1.604 7.893-1.304 11.752 0.04 0.543 0.27 1.007 0.345 1.547-0.035 1.22-0.451 2.474-0.357 3.686 1.013 13.08 10.103 24.766 23.51 28.381l165.157 45.006C555.6 931.847 573.211 921.787 577.826 904.739z" p-id="2088"></path></svg>