<?xml version="1.0" standalone="no"?><!DOCTYPE svg PUBLIC "-//W3C//DTD SVG 1.1//EN" "http://www.w3.org/Graphics/SVG/1.1/DTD/svg11.dtd"><svg t="1484471838542" class="icon" style="" viewBox="0 0 1024 1024" version="1.1" xmlns="http://www.w3.org/2000/svg" p-id="1438" xmlns:xlink="http://www.w3.org/1999/xlink" width="200" height="200"><defs><style type="text/css"></style></defs><path d="M446.174 119.262c-4.681 17.085 5.411 34.664 22.459 39.278l71.052 19.338c-62.877 33.95-116.578 84.040-155.144 145.509-122.548 195.427-64.759 455.771 128.854 580.162 32.514 18.34 70.012-25.157 34.602-53.81-164.225-105.484-213.27-326.291-109.211-492.362 37.707-60.118 92.593-107.313 156.626-135.479l-34.319 112.97c-5.083 16.861 4.394 34.773 21.323 39.914 16.927 5.14 34.77-4.426 39.912-21.324l50.507-166.255c1.173-3.91 1.604-7.893 1.304-11.752-0.040-0.543-0.27-1.007-0.345-1.547 0.035-1.22 0.451-2.473 0.357-3.686-1.013-13.080-10.103-24.766-23.51-28.38l-165.158-45.006c-17.083-4.678-34.694 5.382-39.309 22.43z" p-id="1439"></path></svg>